# xmcd
#
# Track frame offsets:
#	150
#	8125
#	19434
#	31958
#	42504
#	59420
#	71707
#	82033
#	92272
#	105235
#
# Disc length: 1555 seconds
#
# Revision: 0
# Processed by: cddbd v1.5.2PL0 Copyright (c) Steve Scherf et al.
# Submitted via: EasyCDDAExtractor 10.0.6.1
#
DISCID=7906110a
DTITLE=Inspirations - Inspirations-Christmas
DYEAR=2007
DGENRE=Christmas
TTITLE0=Christmas For Everyone
TTITLE1=Going Home For Christmas
TTITLE2=Wonder Of Wonders
TTITLE3=Christmas Everyday
TTITLE4=O Holy Night
TTITLE5=The Christmas Story
TTITLE6=Good News
TTITLE7=Silent Night
TTITLE8=Christmas At Calvary
TTITLE9=Beautiful Star Of Bethlehem
EXTD=
EXTT0=
EXTT1=
EXTT2=
EXTT3=
EXTT4=
EXTT5=
EXTT6=
EXTT7=
EXTT8=
EXTT9=
PLAYORDER=
